<?xml version="1.0" encoding="UTF-8"?><!DOCTYPE svg PUBLIC "-//W3C//DTD SVG 1.0//EN" "http://www.w3.org/TR/2001/REC-SVG-20010904/DTD/svg10.dtd" []><svg xmlns="http://www.w3.org/2000/svg" xmlns:xlink="http://www.w3.org/1999/xlink" clip-rule="evenodd" fill-rule="evenodd" height="5704" image-rendering="optimizeQuality" preserveAspectRatio="xMidYMid meet" text-rendering="geometricPrecision" version="1.0" viewBox="-60.0 -40.4 3817.4 5704.4" width="3817" zoomAndPan="magnify"><g id="change1_1"><path d="M145.97 5310.08c-3.69,170.96 78.76,227.04 228.95,178 148.93,-48.65 306.56,-94.81 451.02,1.71 148.82,99.44 281.34,89.81 435.2,6.73 141.61,-76.45 303.08,-139.94 460.49,-37.78 134.52,87.29 243.62,86.32 372.39,-18.61 188.12,-153.23 402.18,-151.86 612.43,-22.96 88.35,54.15 178.34,66.44 271.12,9.16 130.36,-80.51 255.73,-100.88 390.05,3.37 85.58,66.43 160.76,45.86 217.94,-33.35 75.55,-104.66 77.64,-210.32 5.45,-276.21 -126.83,-115.74 -131.31,-131.09 -63.3,-290.57 39.52,-92.67 44.59,-172.63 -34.69,-253.35 -91.84,-93.5 -113.51,-209.1 -56.26,-331.9 29.08,-62.42 65.04,-121.65 93.62,-184.28 66.45,-145.65 96.34,-286.56 -21.04,-428.44 -84.57,-102.23 -104.94,-214.48 -14.95,-336.43 80.02,-108.42 82.46,-234.46 33.22,-360.42 -25.09,-64.16 -43.88,-131.2 -73.79,-192.94 -56.85,-117.32 -56.37,-224.14 13.93,-339.99 67.89,-111.87 114.87,-247.11 47.23,-368.38 -104.6,-187.61 -93.59,-357.51 17.66,-531.48 12.72,-19.89 18.88,-43.93 28.38,-65.92 39.38,-91.11 41.56,-183.23 -11.8,-267.43 -90.01,-141.97 -93.84,-277.51 1.46,-419.44 53.71,-80.02 61.23,-166.46 -4.1,-250.28 -42.75,-54.84 -52.07,-119.09 -38.03,-187.79 24.01,-117.65 -8.67,-161.49 -127.44,-166.5 -66.09,-2.79 -135.04,0.13 -190.18,41.04 -94.4,70.03 -183.95,63.44 -284.58,10.4 -119.2,-62.85 -247.67,-95.48 -380.92,-42.04 -157.61,63.21 -313.72,67.85 -472.08,3.56 -41.41,-16.81 -87,-23 -129.26,-38.04 -105.53,-37.6 -208.5,-32.24 -302.56,27.21 -128.11,80.95 -251.09,65.42 -371.81,-9.52 -158.28,-98.28 -312.57,-75.99 -468.45,4.68 -116.97,60.54 -234.66,109.96 -362.03,19.62 -28.15,-19.96 -66.61,-32.67 -101.18,-34.79 -76.78,-4.7 -159.05,-5.17 -216.46,54.51 -62.87,65.32 -55.9,148.11 -28.15,228.61 12.79,37.06 32.02,71.94 61.66,98.09 64.96,57.3 62.22,125.44 32.81,196.73 -15.93,38.58 -39.23,74.06 -57.12,111.93 -42.78,90.57 -66.21,181.74 4.66,270.22 123.16,153.72 115.58,312.89 21.78,476.38 -88.64,154.48 -82.85,196.9 51.31,315.97 81.52,72.33 113.28,156.76 90.13,265.32 -19.58,91.91 -52.48,178.59 -92.97,261.9 -55.52,114.23 -36.55,208.67 45.68,304.52 132.43,154.37 138.48,286.81 36.13,461.68 -24.23,41.36 -50.83,81.62 -71.47,124.72 -64.94,135.61 -75.74,268.27 17.78,399.12 128.44,179.66 125.54,361.77 -0.9,542.54 -13.71,19.62 -25.5,40.6 -37.65,61.28 -59.5,101.26 -69.38,202.08 -0.56,304.25 28.42,42.21 50.88,88.39 78.92,130.86 76.72,116.26 78.65,226.03 -12.47,338.41 -56.87,70.13 -98.7,150.97 -95.17,236.31zm3481.56 -2209.96c-0.08,96.97 -33.04,183.79 -89.6,259.57 -49.8,66.74 -47.19,130.16 4.29,187.64 173.01,193.26 138.89,393.43 27.46,598.5 -21.45,39.49 -44.13,78.61 -61.7,119.83 -38.05,89.36 -41.37,180.88 33.46,250.3 115.49,107.12 111.58,225.11 46.04,350.2 -41.93,80.04 -44.07,134.08 38.52,197.07 131.46,100.28 76.35,399 -78.2,459.34 -72.14,28.17 -149.22,12.82 -205.43,-31.24 -111.24,-87.2 -214.84,-70.73 -323.88,-4.7 -118.34,71.65 -232.69,58.46 -346.87,-13.17 -186.67,-117.13 -378.57,-120.23 -544.94,21.31 -150.93,128.42 -284.42,127.5 -434.92,14.43 -52.03,-39.09 -115.49,-46.17 -180.72,-34.07 -98.68,18.28 -188.24,59.17 -275.24,106.94 -128.47,70.53 -256.75,81.91 -380.83,-7.41 -149.45,-107.59 -304.23,-89.18 -460.58,-23.05 -175.22,74.11 -311.61,-15.5 -314.56,-210.02 -1.75,-115.87 35.31,-221.72 111.14,-306.02 84.35,-93.81 80.65,-178.79 5.15,-270.42 -1.91,-2.3 -3.17,-5.13 -4.99,-7.48 -148.66,-193.3 -159.37,-382.96 -1.26,-580.88 108.94,-136.39 99.46,-285.59 -2.82,-423.9 -127.18,-171.99 -115.1,-344.94 -17.08,-522.29 30.42,-55.02 64.91,-107.97 92.16,-164.46 46.38,-96.2 37.49,-191.48 -39.57,-265.65 -154.01,-148.2 -164.14,-308.39 -62.24,-487.65 23.38,-41.11 36.79,-88.33 51.6,-133.78 32.27,-99 19.82,-181.49 -64.38,-258.66 -150.79,-138.17 -155.59,-197.54 -55.38,-374.84 86.48,-153.02 95.55,-297.59 -24.24,-440.81 -74.24,-88.76 -56.44,-190.87 -16.48,-289.4 15.69,-38.73 38.82,-74.37 56.6,-112.32 27.61,-59.03 22.53,-109.09 -22.21,-164.3 -145.8,-179.94 -107.71,-378.6 128.7,-485.26 81.59,-36.81 164.9,-5.49 230.07,40.03 104.62,73.05 196.73,45.05 292.77,-7.26 186.24,-101.4 372.28,-126.64 560.18,-3.06 92.96,61.12 185.52,71.22 283.95,3.62 110.4,-75.81 233.45,-87.07 361.45,-48.18 42.96,13.05 88.37,19.62 129.6,36.57 143.39,58.93 283.07,58.36 426.94,-3.15 149.6,-63.95 295.31,-29.53 431.23,45.7 78.27,43.32 143.87,51.35 223.96,-2.37 84.14,-56.48 185.16,-67.01 285.75,-44.74 113.13,25.03 170.82,104.86 145.58,216.55 -16.65,73.76 -6.77,132.73 37.65,193.1 71.65,97.37 57.05,203.11 -3.2,295.65 -81.44,125.08 -87.06,237.55 -3.74,365.52 66.09,101.47 56.33,218.31 10.98,329.25 -23.77,58.17 -47.24,117.6 -80.18,170.65 -58.93,94.9 -56.8,187.4 -2.57,280.26 100.26,171.7 76.67,343.08 -14.58,504.41 -58.31,103.14 -58.78,194.73 -12.36,297.86 53.99,119.96 109.88,240.4 109.53,376.26z" fill="#fabbee" fill-rule="nonzero"/></g></svg>